<?xml version="1.0" standalone="no"?><svg xmlns="http://www.w3.org/2000/svg" viewBox="0 0 1440 320"><path fill="#B8DDFF" fill-opacity="1" d="M0,224L0,320L68.6,320L68.6,64L137.1,64L137.1,128L205.7,128L205.7,288L274.3,288L274.3,192L342.9,192L342.9,128L411.4,128L411.4,256L480,256L480,96L548.6,96L548.6,160L617.1,160L617.1,288L685.7,288L685.7,288L754.3,288L754.3,128L822.9,128L822.9,64L891.4,64L891.4,160L960,160L960,32L1028.6,32L1028.6,0L1097.1,0L1097.1,256L1165.7,256L1165.7,224L1234.3,224L1234.3,0L1302.9,0L1302.9,224L1371.4,224L1371.4,256L1440,256L1440,320L1371.4,320L1371.4,320L1302.9,320L1302.9,320L1234.3,320L1234.3,320L1165.7,320L1165.7,320L1097.1,320L1097.1,320L1028.6,320L1028.6,320L960,320L960,320L891.4,320L891.4,320L822.9,320L822.9,320L754.3,320L754.3,320L685.7,320L685.7,320L617.1,320L617.1,320L548.6,320L548.6,320L480,320L480,320L411.4,320L411.4,320L342.9,320L342.9,320L274.3,320L274.3,320L205.7,320L205.7,320L137.1,320L137.1,320L68.6,320L68.6,320L0,320L0,320Z"></path></svg>